<?xml version="1.0" encoding="UTF-8"?>
<svg xmlns="http://www.w3.org/2000/svg" xmlns:xlink="http://www.w3.org/1999/xlink" width="16pt" height="16pt" viewBox="0 0 16 16" version="1.1">
<g id="surface1">
<path style="fill:none;stroke-width:20;stroke-linecap:butt;stroke-linejoin:miter;stroke:rgb(20%,20%,20%);stroke-opacity:1;stroke-miterlimit:4;" d="M 152.978516 59.521484 C 152.978516 85.986328 131.494141 107.519531 104.980469 107.519531 C 78.466797 107.519531 56.982422 85.986328 56.982422 59.521484 C 56.982422 33.007812 78.466797 11.523438 104.980469 11.523438 C 131.494141 11.523438 152.978516 33.007812 152.978516 59.521484 Z M 152.978516 59.521484 " transform="matrix(0.08,0,0,0.08,0,0)"/>
<path style=" stroke:none;fill-rule:nonzero;fill:rgb(20%,20%,20%);fill-opacity:1;" d="M 4.878906 7.070312 L 6.011719 8.203125 L 1.203125 13.011719 L 0.0703125 11.878906 Z M 4.878906 7.070312 "/>
<path style=" stroke:none;fill-rule:nonzero;fill:rgb(20%,20%,20%);fill-opacity:1;" d="M 9.96875 11.976562 C 10.546875 11.976562 11.128906 11.976562 11.707031 11.976562 C 11.707031 12.375 11.707031 12.777344 11.707031 13.179688 C 11.128906 13.179688 10.546875 13.179688 9.96875 13.179688 C 9.96875 12.777344 9.96875 12.375 9.96875 11.976562 Z M 7.453125 11.976562 C 8.097656 11.976562 8.742188 11.976562 9.386719 11.976562 C 9.386719 12.375 9.386719 12.777344 9.386719 13.179688 C 8.742188 13.179688 8.097656 13.179688 7.453125 13.179688 C 7.453125 12.777344 7.453125 12.375 7.453125 11.976562 Z M 5.132812 11.976562 C 5.777344 11.976562 6.421875 11.976562 7.066406 11.976562 C 7.066406 12.375 7.066406 12.777344 7.066406 13.179688 C 6.421875 13.179688 5.777344 13.179688 5.132812 13.179688 C 5.132812 12.777344 5.132812 12.375 5.132812 11.976562 Z M 2.808594 11.976562 C 3.453125 11.976562 4.097656 11.976562 4.746094 11.976562 C 4.746094 12.375 4.746094 12.777344 4.746094 13.179688 C 4.097656 13.179688 3.453125 13.179688 2.808594 13.179688 C 2.808594 12.777344 2.808594 12.375 2.808594 11.976562 Z M 9.96875 14.457031 C 10.578125 14.429688 11.191406 14.476562 11.804688 14.449219 C 11.84375 14.023438 11.828125 13.601562 11.867188 13.179688 C 12.4375 13.179688 13.070312 13.179688 13.644531 13.179688 C 13.644531 12.777344 13.644531 12.375 13.644531 11.976562 C 13.0625 11.976562 12.480469 11.976562 11.902344 11.976562 C 11.902344 11.53125 11.902344 11.085938 11.902344 10.640625 C 11.257812 10.640625 10.613281 10.640625 9.96875 10.640625 C 9.96875 10.238281 9.96875 9.839844 9.96875 9.4375 C 10.613281 9.4375 11.257812 9.4375 11.902344 9.4375 C 11.902344 9.839844 11.902344 10.238281 11.902344 10.640625 C 12.476562 10.640625 13.105469 10.621094 13.679688 10.621094 C 13.71875 11.042969 13.699219 11.484375 13.738281 11.910156 C 14.351562 11.9375 14.972656 11.90625 15.585938 11.933594 C 15.585938 12.328125 15.578125 12.78125 15.578125 13.179688 C 14.933594 13.179688 14.289062 13.179688 13.644531 13.179688 C 13.644531 13.625 13.644531 14.070312 13.644531 14.515625 C 13.0625 14.515625 12.480469 14.515625 11.902344 14.515625 C 11.902344 14.914062 11.902344 15.316406 11.902344 15.71875 C 11.257812 15.71875 10.613281 15.71875 9.96875 15.71875 C 9.96875 15.320312 9.96875 14.851562 9.96875 14.457031 Z M 9.96875 14.457031 "/>
</g>
</svg>
